<svg width="32" height="32" viewBox="0 0 32 32" fill="none" xmlns="http://www.w3.org/2000/svg">
<path d="M24 10.557C23.4383 10.8246 22.8425 10.9999 22.2325 11.077C22.8747 10.663 23.3554 10.012 23.585 9.24508C22.981 9.63039 22.3205 9.90247 21.6319 10.0497C21.21 9.5642 20.6621 9.22658 20.0596 9.08072C19.4571 8.93486 18.8277 8.98752 18.2533 9.23185C17.6789 9.47618 17.1861 9.90087 16.839 10.4507C16.4919 11.0005 16.3065 11.6501 16.3069 12.3149C16.3069 12.5752 16.3338 12.8275 16.3881 13.069C15.1641 13.0042 13.9664 12.6624 12.8733 12.066C11.7802 11.4696 10.816 10.632 10.0438 9.60769C9.76936 10.1133 9.62544 10.6886 9.62687 11.2741C9.62687 12.4225 10.1687 13.437 10.9962 14.0311C10.5075 14.0144 10.0295 13.8718 9.6025 13.6153V13.6577C9.60208 14.4227 9.84777 15.1643 10.2978 15.7564C10.7479 16.3486 11.3745 16.7547 12.0712 16.9058C11.6182 17.0395 11.1426 17.0593 10.6813 16.9636C10.8778 17.6218 11.2603 18.1974 11.7756 18.6102C12.2908 19.0229 12.9129 19.2521 13.555 19.2658C12.9167 19.8051 12.1858 20.2036 11.4042 20.4386C10.6226 20.6735 9.80558 20.7402 9 20.6348C10.4066 21.6092 12.0442 22.1265 13.7169 22.125C19.3781 22.125 22.4744 17.0766 22.4744 12.6983C22.4744 12.5571 22.4694 12.4117 22.4644 12.2698C23.066 11.8009 23.5858 11.2213 24 10.5576V10.557Z" fill="white"/>
<circle cx="16" cy="16" r="15.5" stroke="white"/>
</svg>
